<svg xmlns="http://www.w3.org/2000/svg" width="512" height="512" viewBox="0 0 512 512">
  <defs>
    <linearGradient id="g" x1="0" y1="0" x2="1" y2="1">
      <stop offset="0%" stop-color="#22d3ee"/>
      <stop offset="100%" stop-color="#6366f1"/>
    </linearGradient>
  </defs>
  <rect width="512" height="512" rx="112" fill="url(#g)"/>
  <g fill="#fff">
    <circle cx="256" cy="240" r="92"/>
    <circle cx="224" cy="224" r="26"/>
    <circle cx="288" cy="224" r="26"/>
    <path d="M212 292c29 29 59 29 88 0" stroke="#0b1220" stroke-width="16" stroke-linecap="round" fill="none"/>
    <path d="M132 188c0-42 52-76 78-50 26 26-9 78-50 78z"/>
    <path d="M380 188c0-42-52-76-78-50-26 26 9 78 50 78z"/>
    <circle cx="96" cy="168" r="10" opacity=".9"/>
    <circle cx="416" cy="176" r="10" opacity=".9"/>
  </g>
</svg>
